  0
SECTION
  2
HEADER
  9
$ACADVER
  1
AC1018
  9
$ACADMAINTVER
 70
     0
  9
$DWGCODEPAGE
  3
ANSI_1252
  9
$INSBASE
 10
0.0
 20
0.0
 30
0.0
  9
$EXTMIN
 10
0.0
 20
0.0
 30
0.0
  9
$EXTMAX
 10
215.28
 20
268.0
 30
0.0
  9
$LIMMIN
 10
0.0
 20
0.0
  9
$LIMMAX
 10
420.0
 20
297.0
  9
$ORTHOMODE
 70
     0
  9
$REGENMODE
 70
     1
  9
$FILLMODE
 70
     1
  9
$QTEXTMODE
 70
     0
  9
$MIRRTEXT
 70
     1
  9
$LTSCALE
 40
1.0
  9
$ATTMODE
 70
     1
  9
$TEXTSIZE
 40
3.5
  9
$TRACEWID
 40
1.0
  9
$TEXTSTYLE
  7
Standard
  9
$CLAYER
  8
0
  9
$CELTYPE
  6
ByLayer
  9
$CECOLOR
 62
   256
  9
$CELTSCALE
 40
1.0
  9
$DISPSILH
 70
     0
  9
$DIMSCALE
 40
1.0
  9
$DIMASZ
 40
3.302
  9
$DIMEXO
 40
1.0
  9
$DIMDLI
 40
3.75
  9
$DIMRND
 40
0.0
  9
$DIMDLE
 40
0.0
  9
$DIMEXE
 40
1.0
  9
$DIMTP
 40
0.0
  9
$DIMTM
 40
0.0
  9
$DIMTXT
 40
3.5
  9
$DIMCEN
 40
2.5
  9
$DIMTSZ
 40
0.0
  9
$DIMTOL
 70
     0
  9
$DIMLIM
 70
     0
  9
$DIMTIH
 70
     1
  9
$DIMTOH
 70
     1
  9
$DIMSE1
 70
     0
  9
$DIMSE2
 70
     0
  9
$DIMTAD
 70
     1
  9
$DIMZIN
 70
     0
  9
$DIMBLK
  1

  9
$DIMASO
 70
     1
  9
$DIMSHO
 70
     1
  9
$DIMPOST
  1

  9
$DIMAPOST
  1

  9
$DIMALT
 70
     0
  9
$DIMALTD
 70
     3
  9
$DIMALTF
 40
0.0393700787
  9
$DIMLFAC
 40
1.0
  9
$DIMTOFL
 70
     1
  9
$DIMTVP
 40
0.0
  9
$DIMTIX
 70
     0
  9
$DIMSOXD
 70
     0
  9
$DIMSAH
 70
     0
  9
$DIMBLK1
  1

  9
$DIMBLK2
  1

  9
$DIMSTYLE
  2
ISO-25
  9
$DIMCLRD
 70
     0
  9
$DIMCLRE
 70
     0
  9
$DIMCLRT
 70
     0
  9
$DIMTFAC
 40
1.0
  9
$DIMGAP
 40
1.524
  9
$DIMJUST
 70
     0
  9
$DIMSD1
 70
     0
  9
$DIMSD2
 70
     0
  9
$DIMTOLJ
 70
     0
  9
$DIMTZIN
 70
     0
  9
$DIMALTZ
 70
     0
  9
$DIMALTTZ
 70
     0
  9
$DIMUPT
 70
     0
  9
$DIMDEC
 70
     2
  9
$DIMTDEC
 70
     2
  9
$DIMALTU
 70
     2
  9
$DIMALTTD
 70
     3
  9
$DIMTXSTY
  7
Standard
  9
$DIMAUNIT
 70
     0
  9
$DIMADEC
 70
     2
  9
$DIMALTRND
 40
0.0
  9
$DIMAZIN
 70
     0
  9
$DIMDSEP
 70
    44
  9
$DIMATFIT
 70
     3
  9
$DIMFRAC
 70
     0
  9
$DIMLDRBLK
  1

  9
$DIMLUNIT
 70
     2
  9
$DIMLWD
 70
    -2
  9
$DIMLWE
 70
    -2
  9
$DIMTMOVE
 70
     0
  9
$LUNITS
 70
     2
  9
$LUPREC
 70
     2
  9
$SKETCHINC
 40
1.0
  9
$FILLETRAD
 40
10.0
  9
$AUNITS
 70
     0
  9
$AUPREC
 70
     2
  9
$MENU
  1
.
  9
$ELEVATION
 40
0.0
  9
$PELEVATION
 40
0.0
  9
$THICKNESS
 40
0.0
  9
$LIMCHECK
 70
     0
  9
$CHAMFERA
 40
0.0
  9
$CHAMFERB
 40
0.0
  9
$CHAMFERC
 40
0.0
  9
$CHAMFERD
 40
0.0
  9
$SKPOLY
 70
     0
  9
$TDCREATE
 40
2456932.598870509
  9
$TDUCREATE
 40
2456932.765537176
  9
$TDUPDATE
 40
2456932.598896667
  9
$TDUUPDATE
 40
2456932.765563333
  9
$TDINDWG
 40
0.0000000116
  9
$TDUSRTIMER
 40
0.0000000116
  9
$USRTIMER
 70
     1
  9
$ANGBASE
 50
0.0
  9
$ANGDIR
 70
     0
  9
$PDMODE
 70
     0
  9
$PDSIZE
 40
-1.0
  9
$PLINEWID
 40
0.0
  9
$SPLFRAME
 70
     0
  9
$SPLINETYPE
 70
     6
  9
$SPLINESEGS
 70
     8
  9
$HANDSEED
  5
C5
  9
$SURFTAB1
 70
     6
  9
$SURFTAB2
 70
     6
  9
$SURFTYPE
 70
     6
  9
$SURFU
 70
     6
  9
$SURFV
 70
     6
  9
$UCSBASE
  2

  9
$UCSNAME
  2

  9
$UCSORG
 10
0.0
 20
0.0
 30
0.0
  9
$UCSXDIR
 10
1.0
 20
0.0
 30
0.0
  9
$UCSYDIR
 10
0.0
 20
1.0
 30
0.0
  9
$UCSORTHOREF
  2

  9
$UCSORTHOVIEW
 70
     0
  9
$UCSORGTOP
 10
0.0
 20
0.0
 30
0.0
  9
$UCSORGBOTTOM
 10
0.0
 20
0.0
 30
0.0
  9
$UCSORGLEFT
 10
0.0
 20
0.0
 30
0.0
  9
$UCSORGRIGHT
 10
0.0
 20
0.0
 30
0.0
  9
$UCSORGFRONT
 10
0.0
 20
0.0
 30
0.0
  9
$UCSORGBACK
 10
0.0
 20
0.0
 30
0.0
  9
$PUCSBASE
  2

  9
$PUCSNAME
  2

  9
$PUCSORG
 10
0.0
 20
0.0
 30
0.0
  9
$PUCSXDIR
 10
1.0
 20
0.0
 30
0.0
  9
$PUCSYDIR
 10
0.0
 20
1.0
 30
0.0
  9
$PUCSORTHOREF
  2

  9
$PUCSORTHOVIEW
 70
     0
  9
$PUCSORGTOP
 10
0.0
 20
0.0
 30
0.0
  9
$PUCSORGBOTTOM
 10
0.0
 20
0.0
 30
0.0
  9
$PUCSORGLEFT
 10
0.0
 20
0.0
 30
0.0
  9
$PUCSORGRIGHT
 10
0.0
 20
0.0
 30
0.0
  9
$PUCSORGFRONT
 10
0.0
 20
0.0
 30
0.0
  9
$PUCSORGBACK
 10
0.0
 20
0.0
 30
0.0
  9
$USERI1
 70
     0
  9
$USERI2
 70
     0
  9
$USERI3
 70
     0
  9
$USERI4
 70
     0
  9
$USERI5
 70
     0
  9
$USERR1
 40
0.0
  9
$USERR2
 40
0.0
  9
$USERR3
 40
0.0
  9
$USERR4
 40
0.0
  9
$USERR5
 40
0.0
  9
$WORLDVIEW
 70
     1
  9
$SHADEDGE
 70
     3
  9
$SHADEDIF
 70
    70
  9
$TILEMODE
 70
     1
  9
$MAXACTVP
 70
    64
  9
$PINSBASE
 10
0.0
 20
0.0
 30
0.0
  9
$PLIMCHECK
 70
     0
  9
$PEXTMIN
 10
1.0000000000E+20
 20
1.0000000000E+20
 30
1.0000000000E+20
  9
$PEXTMAX
 10
-1.0000000000E+20
 20
-1.0000000000E+20
 30
-1.0000000000E+20
  9
$PLIMMIN
 10
0.0
 20
0.0
  9
$PLIMMAX
 10
420.0
 20
297.0
  9
$UNITMODE
 70
     0
  9
$VISRETAIN
 70
     1
  9
$PLINEGEN
 70
     0
  9
$PSLTSCALE
 70
     1
  9
$TREEDEPTH
 70
  3020
  9
$CMLSTYLE
  2
Standard
  9
$CMLJUST
 70
     0
  9
$CMLSCALE
 40
20.0
  9
$PROXYGRAPHICS
 70
     1
  9
$MEASUREMENT
 70
     1
  9
$CELWEIGHT
370
    -1
  9
$ENDCAPS
280
     0
  9
$JOINSTYLE
280
     0
  9
$LWDISPLAY
290
     1
  9
$INSUNITS
 70
     4
  9
$HYPERLINKBASE
  1

  9
$STYLESHEET
  1

  9
$XEDIT
290
     1
  9
$CEPSNTYPE
380
     0
  9
$PSTYLEMODE
290
     1
  9
$FINGERPRINTGUID
  2
{B184B14A-4E3C-4180-ACEF-FC66AB073D4B}
  9
$VERSIONGUID
  2
{FAEB1C32-E019-11D5-929B-00C0DF256EC4}
  9
$EXTNAMES
290
     1
  9
$PSVPSCALE
 40
0.0
  9
$OLESTARTUP
290
     0
  9
$SORTENTS
280
   127
  9
$INDEXCTL
280
     0
  9
$HIDETEXT
280
     1
  9
$XCLIPFRAME
290
     0
  9
$HALOGAP
280
     0
  9
$OBSCOLOR
 70
   257
  9
$OBSLTYPE
280
     0
  9
$INTERSECTIONDISPLAY
280
     0
  9
$INTERSECTIONCOLOR
 70
   257
  9
$DIMASSOC
280
     2
  9
$PROJECTNAME
  1

  0
ENDSEC
  0
SECTION
  2
CLASSES
  0
CLASS
  1
ACDBDICTIONARYWDFLT
  2
AcDbDictionaryWithDefault
  3
ObjectDBX Classes
 90
        0
 91
        4
280
     0
281
     0
  0
CLASS
  1
VISUALSTYLE
  2
AcDbVisualStyle
  3
ObjectDBX Classes
 90
     4095
 91
        4
280
     0
281
     0
  0
CLASS
  1
MATERIAL
  2
AcDbMaterial
  3
ObjectDBX Classes
 90
     1153
 91
        4
280
     0
281
     0
  0
CLASS
  1
SCALE
  2
AcDbScale
  3
ObjectDBX Classes
 90
     1153
 91
        4
280
     0
281
     0
  0
CLASS
  1
SUN
  2
AcDbSun
  3
SCENEOE
 90
     1153
 91
        4
280
     0
281
     0
  0
CLASS
  1
DICTIONARYVAR
  2
AcDbDictionaryVar
  3
ObjectDBX Classes
 90
        0
 91
        4
280
     0
281
     0
  0
ENDSEC
  0
SECTION
  2
TABLES
  0
TABLE
  2
VPORT
  5
8
330
0
100
AcDbSymbolTable
 70
     1
  0
VPORT
  5
29
330
8
100
AcDbSymbolTableRecord
100
AcDbViewportTableRecord
  2
*Active
 70
     0
 10
0.0
 20
0.0
 11
1.0
 21
1.0
 12
107.64
 22
134.0
 13
0.0
 23
0.0
 14
10.0
 24
10.0
 15
10.0
 25
10.0
 16
0.0
 26
0.0
 36
1.0
 17
0.0
 27
0.0
 37
0.0
 40
273.36
 41
0.8032835821
 42
50.0
 43
0.0
 44
0.0
 50
0.0
 51
0.0
 71
     0
 72
   100
 73
     1
 74
     3
 75
     0
 76
     0
 77
     0
 78
     0
281
     0
 65
     1
110
0.0
120
0.0
130
0.0
111
1.0
121
0.0
131
0.0
112
0.0
122
1.0
132
0.0
 79
     0
146
0.0
  0
ENDTAB
  0
TABLE
  2
LTYPE
  5
5
330
0
100
AcDbSymbolTable
 70
     6
  0
LTYPE
  5
14
330
5
100
AcDbSymbolTableRecord
100
AcDbLinetypeTableRecord
  2
ByBlock
 70
     0
  3

 72
    65
 73
     0
 40
0.0
  0
LTYPE
  5
15
330
5
100
AcDbSymbolTableRecord
100
AcDbLinetypeTableRecord
  2
ByLayer
 70
     0
  3

 72
    65
 73
     0
 40
0.0
  0
LTYPE
  5
16
330
5
100
AcDbSymbolTableRecord
100
AcDbLinetypeTableRecord
  2
Continuous
 70
     0
  3
Solid line
 72
    65
 73
     0
 40
0.0
  0
LTYPE
  5
6A
330
5
100
AcDbSymbolTableRecord
100
AcDbLinetypeTableRecord
  2
HIDDEN
 70
     0
  3
Hidden __ __ __ __ __ __ __ __ __ __ __ __ __ __
 72
    65
 73
     2
 40
1.905
 49
1.27
 74
     0
 49
-0.635
 74
     0
  0
LTYPE
  5
6B
330
5
100
AcDbSymbolTableRecord
100
AcDbLinetypeTableRecord
  2
PHANTOM
 70
     0
  3
Phantom ______  __  __  ______  __  __  ______
 72
    65
 73
     6
 40
12.7
 49
6.35
 74
     0
 49
-1.27
 74
     0
 49
1.27
 74
     0
 49
-1.27
 74
     0
 49
1.27
 74
     0
 49
-1.27
 74
     0
  0
LTYPE
  5
6C
330
5
100
AcDbSymbolTableRecord
100
AcDbLinetypeTableRecord
  2
CENTER
 70
     0
  3
Center ____ _ ____ _ ____ _ ____ _ ____ _ ____
 72
    65
 73
     4
 40
10.16
 49
6.35
 74
     0
 49
-1.27
 74
     0
 49
1.27
 74
     0
 49
-1.27
 74
     0
  0
LTYPE
  5
6D
330
5
100
AcDbSymbolTableRecord
100
AcDbLinetypeTableRecord
  2
CENTERX2
 70
     0
  3
Center (2x) ________  __  ________  __  _____
 72
    65
 73
     4
 40
20.32
 49
12.7
 74
     0
 49
-2.54
 74
     0
 49
2.54
 74
     0
 49
-2.54
 74
     0
  0
LTYPE
  5
6E
330
5
100
AcDbSymbolTableRecord
100
AcDbLinetypeTableRecord
  2
DOT2
 70
     0
  3
Dot (.5x) ........................................
 72
    65
 73
     2
 40
0.635
 49
0.0
 74
     0
 49
-0.635
 74
     0
  0
ENDTAB
  0
TABLE
  2
LAYER
  5
2
330
0
100
AcDbSymbolTable
 70
     1
  0
LAYER
  5
10
330
2
100
AcDbSymbolTableRecord
100
AcDbLayerTableRecord
  2
0
 70
     0
 62
     7
  6
Continuous
370
    -3
390
F
  0
ENDTAB
  0
TABLE
  2
STYLE
  5
3
330
0
100
AcDbSymbolTable
 70
     1
  0
STYLE
  5
11
330
3
100
AcDbSymbolTableRecord
100
AcDbTextStyleTableRecord
  2
Standard
 70
     0
 40
0.0
 41
1.0
 50
0.0
 71
     0
 42
3.5
  3
txt
  4

  0
ENDTAB
  0
TABLE
  2
VIEW
  5
6
330
0
100
AcDbSymbolTable
 70
     0
  0
ENDTAB
  0
TABLE
  2
UCS
  5
7
330
0
100
AcDbSymbolTable
 70
     0
  0
ENDTAB
  0
TABLE
  2
APPID
  5
9
330
0
100
AcDbSymbolTable
 70
     1
  0
APPID
  5
12
330
9
100
AcDbSymbolTableRecord
100
AcDbRegAppTableRecord
  2
ACAD
 70
     0
  0
ENDTAB
  0
TABLE
  2
DIMSTYLE
  5
A
330
0
100
AcDbSymbolTable
 70
     1
100
AcDbDimStyleTable
  0
DIMSTYLE
105
27
330
A
100
AcDbSymbolTableRecord
100
AcDbDimStyleTableRecord
  2
ISO-25
 70
     0
 41
2.5
 42
0.625
 43
3.75
 44
1.25
 73
     0
 74
     0
 77
     1
 78
     8
140
2.5
141
2.5
143
0.0393700787
147
0.625
171
     3
172
     1
178
     0
271
     2
272
     2
274
     3
278
    44
283
     0
284
     8
340
11
  0
ENDTAB
  0
TABLE
  2
BLOCK_RECORD
  5
1
330
0
100
AcDbSymbolTable
 70
     1
  0
BLOCK_RECORD
  5
1F
330
1
100
AcDbSymbolTableRecord
100
AcDbBlockTableRecord
  2
*Model_Space
340
22
  0
BLOCK_RECORD
  5
1B
330
1
100
AcDbSymbolTableRecord
100
AcDbBlockTableRecord
  2
*Paper_Space
340
1E
  0
BLOCK_RECORD
  5
23
330
1
100
AcDbSymbolTableRecord
100
AcDbBlockTableRecord
  2
*Paper_Space0
340
26
  0
ENDTAB
  0
ENDSEC
  0
SECTION
  2
BLOCKS
  0
BLOCK
  5
20
330
1F
100
AcDbEntity
  8
0
100
AcDbBlockBegin
  2
*Model_Space
 70
     0
 10
0.0
 20
0.0
 30
0.0
  3
*Model_Space
  1
*Model_Space
  0
ENDBLK
  5
21
330
1F
100
AcDbEntity
  8
0
100
AcDbBlockEnd
  0
BLOCK
  5
1C
330
1B
100
AcDbEntity
 67
     1
  8
0
100
AcDbBlockBegin
  2
*Paper_Space
 70
     0
 10
0.0
 20
0.0
 30
0.0
  3
*Paper_Space
  1
*Paper_Space
  0
ENDBLK
  5
1D
330
1B
100
AcDbEntity
 67
     1
  8
0
100
AcDbBlockEnd
  0
BLOCK
  5
24
330
23
100
AcDbEntity
  8
0
100
AcDbBlockBegin
  2
*Paper_Space0
 70
     0
 10
0.0
 20
0.0
 30
0.0
  3
*Paper_Space0
  1
*Paper_Space0
  0
ENDBLK
  5
25
330
23
100
AcDbEntity
  8
0
100
AcDbBlockEnd
  0
ENDSEC
  0
SECTION
  2
ENTITIES
  0
LWPOLYLINE
  5
70
330
1F
100
AcDbEntity
  8
0
  6
Continuous
 62
     7
370
    15
100
AcDbPolyline
 90
       19
 70
   128
 43
0.0
 10
166.4527546687
 20
168.5051238768
 10
162.3207581045
 20
171.650845031
 10
157.7818877398
 20
174.1381630172
 10
152.9263819038
 20
175.8982188397
 10
147.844478926
 20
176.862153503
 10
142.6264171356
 20
176.9611080116
 10
137.3648893334
 20
176.1352337188
 10
132.1849015412
 20
174.4433036015
 10
127.2342546745
 20
172.0277705438
 10
122.6612274958
 20
169.0328416021
 10
118.6140987674
 20
165.6027238329
 10
115.2411472517
 20
161.8816242927
 10
112.6877483955
 20
158.006621424
 10
111.4758338324
 20
155.3152535366
 10
110.6435854841
 20
152.4304823957
 10
110.177722621
 20
149.2545535558
 10
110.0649645136
 20
145.6897125714
 10
110.2920304321
 20
141.6382049972
 10
110.845639647
 20
137.0022763874
  0
LWPOLYLINE
  5
71
330
1F
100
AcDbEntity
  8
0
  6
Continuous
 62
     7
370
    15
100
AcDbPolyline
 90
       12
 70
   128
 43
0.0
 10
110.845639647
 20
137.0022763874
 10
113.7945374973
 20
142.6541425493
 10
117.074098562
 20
147.612329134
 10
120.6843228409
 20
151.8768361417
 10
124.625210334
 20
155.4476635723
 10
128.8967610414
 20
158.3248114258
 10
133.4989749631
 20
160.5082797023
 10
138.1410657435
 20
161.9316244973
 10
143.0771093731
 20
162.738302305
 10
148.3071058519
 20
162.9283131254
 10
153.83105518
 20
162.5016569585
 10
159.6489573574
 20
161.4583338043
  0
LWPOLYLINE
  5
73
330
1F
100
AcDbEntity
  8
0
  6
Continuous
 62
     7
370
    15
100
AcDbPolyline
 90
       57
 70
   128
 43
0.0
 10
112.8319130027
 20
70.6815131066
 10
112.0081386209
 20
68.4661497727
 10
111.0551188129
 20
66.3808338875
 10
109.9812202081
 20
64.4438725893
 10
108.7958706398
 20
62.6722706009
 10
107.5094763772
 20
61.0815809438
 10
106.1333307682
 20
59.685768397
 10
104.6795150942
 20
58.4970868993
 10
103.1607925078
 20
57.5259719713
 10
101.5904959839
 20
56.7809491009
 10
99.9824112687
 20
56.2685588976
 10
98.3506558538
 20
55.9932996717
 10
96.7095550376
 20
55.9575879439
 10
95.0735161623
 20
56.16173723
 10
93.456902131
 20
56.6039552887
 10
91.8739053147
 20
57.2803598558
 10
90.3384229566
 20
58.185012727
 10
88.8639351667
 20
59.3099718895
 10
87.4633865797
 20
60.6453612458
 10
86.1490727124
 20
62.1794573165
 10
84.9325320209
 20
63.8987921618
 10
83.8244446036
 20
65.7882716172
 10
82.8345384398
 20
67.8313078065
 10
81.9715039869
 20
70.0099647679
 10
81.2429178866
 20
72.3051159149
 10
80.6551764487
 20
74.6966119503
 10
80.2134394977
 20
77.1634577582
 10
79.921585074
 20
79.6839967216
 10
79.7821753886
 20
82.2361008473
 10
79.7964343293
 20
84.7973650295
 10
79.9642367157
 20
87.3453037454
 10
80.2841093986
 20
89.8575484575
 10
80.7532441928
 20
92.3120439885
 10
81.3675225299
 20
94.6872421454
 10
82.1215516164
 20
96.9622908925
 10
83.0087117765
 20
99.117217413
 10
84.0212145672
 20
101.1331034517
 10
85.1501711538
 20
102.9922513999
 10
86.3856703449
 20
104.6783396639
 10
87.7168656041
 20
106.1765659534
 10
89.1320702725
 20
107.4737772319
 10
90.6188601664
 20
108.5585851881
 10
92.16418265
 20
109.4214662148
 10
93.7544712261
 20
110.0548450174
 10
95.3757646368
 20
110.4531611177
 10
97.0138294303
 20
110.61291767
 10
98.654284918
 20
110.5327121601
 10
100.2827294228
 20
110.2132487178
 10
101.8848667132
 20
109.6573319357
 10
103.4466315106
 20
108.8698422474
 10
104.9543129693
 20
107.8576930815
 10
106.3946750452
 20
106.6297701683
 10
107.7550726959
 20
105.1968535318
 10
109.0235628924
 20
103.57152285
 10
110.1890094679
 20
101.7680470183
 10
111.241180883
 20
99.8022588808
 10
112.1708400491
 20
97.6914162332
  0
LWPOLYLINE
  5
75
330
1F
100
AcDbEntity
  8
0
  6
Continuous
 62
     7
370
    15
100
AcDbPolyline
 90
       89
 70
   128
 43
0.0
 10
114.6548530953
 20
98.5640448698
 10
113.9979998246
 20
101.9960925471
 10
113.2290115421
 20
105.3482365184
 10
112.3511711642
 20
108.6061660221
 10
111.3682263117
 20
111.755972511
 10
110.2843733106
 20
114.7842090299
 10
109.1042392779
 20
117.6779476225
 10
107.8328623673
 20
120.4248345226
 10
106.475670261
 20
123.0131428937
 10
105.0384569979
 20
125.4318228931
 10
103.5273582382
 20
127.6705488447
 10
101.9488250693
 20
129.7197633208
 10
100.3095964657
 20
131.5707179443
 10
98.6166705185
 20
133.2155107364
 10
96.8772745605
 20
134.6471198515
 10
95.0988343113
 20
135.8594335543
 10
93.2889421756
 20
136.8472763115
 10
91.455324831
 20
137.6064308872
 10
89.6058102408
 20
138.1336563465
 10
87.7482942362
 20
138.4267018918
 10
85.8907068072
 20
138.4843164715
 10
84.0409782491
 20
138.306254121
 10
82.2070053062
 20
137.893275013
 10
80.3966174602
 20
137.2471422117
 10
78.6175435046
 20
136.3706141467
 10
76.8773785499
 20
135.2674328361
 10
75.1835515984
 20
133.9423079122
 10
73.5432938294
 20
132.4008965145
 10
71.9636077278
 20
130.6497791395
 10
70.45123719
 20
128.696431547
 10
69.0126387327
 20
126.5491928454
 10
67.6539539299
 20
124.2172298905
 10
66.380983193
 20
121.7104981517
 10
65.1991610084
 20
119.0396992099
 10
64.1135327367
 20
116.2162350716
 10
63.1287330738
 20
113.2521594917
 10
62.2489662642
 20
110.1601265147
 10
61.477988153
 20
106.9533364528
 10
60.8190901511
 20
103.6454795319
 10
60.2750851845
 20
100.2506774461
 10
59.8482956848
 20
96.7834230703
 10
59.5405436749
 20
93.2585185882
 10
59.3531429901
 20
89.6910122998
 10
59.2868936697
 20
86.0961343777
 10
59.3420785412
 20
82.4892318482
 10
59.5184620126
 20
78.8857030719
 10
59.8152910789
 20
75.3009320067
 10
60.2312985361
 20
71.750222531
 10
60.7647083914
 20
68.2487331099
 10
61.4132434451
 20
64.811412081
 10
62.1741350123
 20
61.4529338385
 10
63.0441347427
 20
58.187636186
 10
64.0195284882
 20
55.0294591261
 10
65.0961521595
 20
51.9918853491
 10
66.2694095027
 20
49.0878826736
 10
67.5342917215
 20
46.3298486844
 10
68.8853988605
 20
43.7295578064
 10
70.3169628584
 20
41.2981110373
 10
71.8228721724
 20
39.0458885563
 10
73.3966978695
 20
36.9825054097
 10
75.0317210723
 20
35.1167704625
 10
76.7209616428
 20
33.4566487928
 10
78.4572079818
 20
32.0092276872
 10
80.2330478159
 20
30.7806863847
 10
82.0408998417
 20
29.7762696963
 10
83.8730460914
 20
29.0002656143
 10
85.7216648816
 20
28.4559870064
 10
87.5788642058
 20
28.1457574726
 10
89.4367154257
 20
28.0709014252
 10
91.28728712
 20
28.2317384349
 10
93.1226789448
 20
28.6275818664
 10
94.9350553611
 20
29.2567418101
 10
96.7166790858
 20
30.1165322959
 10
98.4599441233
 20
31.2032827606
 10
100.1574082364
 20
32.5123537175
 10
101.8018247183
 20
34.0381565636
 10
103.3861733301
 20
35.7741774375
 10
104.9036902705
 20
37.7130050284
 10
106.3478970519
 20
39.846362216
 10
107.7126281578
 20
42.1651414061
 10
108.9920573642
 20
44.6594434131
 10
110.1807226128
 20
47.31861972
 10
111.2735493287
 20
50.1313179391
 10
112.2658720851
 20
53.0855302767
 10
113.1534545203
 20
56.1686447956
 10
113.9325074234
 20
59.3674992579
 10
114.5997049107
 20
62.6684373158
 10
115.1521986249
 20
66.0573668129
 10
115.5876298947
 20
69.519819945
  0
CIRCLE
  5
7A
330
1F
100
AcDbEntity
  8
0
  6
Continuous
 62
     7
370
    15
100
AcDbCircle
 10
10.31
 20
27.175
 30
0.0
 40
1.775000000000002
  0
CIRCLE
  5
7B
330
1F
100
AcDbEntity
  8
0
  6
Continuous
 62
     7
370
    15
100
AcDbCircle
 10
10.31
 20
241.465
 30
0.0
 40
1.775000000000031
  0
CIRCLE
  5
8C
330
1F
100
AcDbEntity
  8
0
  6
Continuous
 62
     7
370
    15
100
AcDbCircle
 10
204.97
 20
27.175
 30
0.0
 40
1.775000000000006
  0
CIRCLE
  5
8D
330
1F
100
AcDbEntity
  8
0
  6
Continuous
 62
     7
370
    15
100
AcDbCircle
 10
204.97
 20
241.465
 30
0.0
 40
1.775000000000034
  0
LWPOLYLINE
  5
93
330
1F
100
AcDbEntity
  8
0
  6
Continuous
 62
     7
370
    15
100
AcDbPolyline
 90
       19
 70
   128
 43
0.0
 10
97.1998177494
 20
163.6452686544
 10
93.8138481845
 20
166.421251913
 10
90.1204020067
 20
168.6313382639
 10
86.1818840119
 20
170.2877351202
 10
82.0606989961
 20
171.4026498953
 10
77.8192517553
 20
171.9882900025
 10
72.4433937566
 20
171.9946448659
 10
67.0990178922
 20
171.2169247481
 10
61.9080085291
 20
169.6789722533
 10
56.9922500344
 20
167.4046299855
 10
52.4736256217
 20
164.4177439712
 10
48.4677187552
 20
160.7608489849
 10
45.0690627734
 20
156.5389268082
 10
42.3677995481
 20
151.8699868867
 10
40.7694870903
 20
147.8922845206
 10
39.7213494331
 20
143.7644376792
 10
39.2695392145
 20
139.5468671986
 10
39.4602090731
 20
135.2999939149
 10
40.3395116472
 20
131.0842386642
  0
LWPOLYLINE
  5
94
330
1F
100
AcDbEntity
  8
0
  6
Continuous
 62
     7
370
    15
100
AcDbPolyline
 90
       12
 70
   128
 43
0.0
 10
40.3395116472
 20
131.0842386642
 10
43.2060164089
 20
136.5381853495
 10
46.4395593219
 20
141.3642035609
 10
50.040140386
 20
145.5622932983
 10
54.0077596013
 20
149.1324545618
 10
58.3424169678
 20
152.0746873514
 10
63.0441124855
 20
154.388991667
 10
67.8133166721
 20
155.9959187991
 10
72.9088102846
 20
157.0446303328
 10
78.3305933229
 20
157.535126268
 10
84.078665787
 20
157.4674066047
 10
90.1530276769
 20
156.841471343
  0
LWPOLYLINE
  5
96
330
1F
100
AcDbEntity
  8
0
  6
Continuous
 62
     7
370
    15
100
AcDbPolyline
 90
       82
 70
   128
 43
0.0
 10
169.5560134322
 20
110.101423498
 10
168.7806677879
 20
113.1599848185
 10
167.9119577796
 20
116.0983887933
 10
166.9538327456
 20
118.9032768194
 10
165.910648524
 20
121.5618972859
 10
164.7871476498
 20
124.0621635448
 10
163.5884377944
 20
126.3927088594
 10
162.3199685449
 20
128.5429380805
 10
160.9875066294
 20
130.5030758136
 10
159.5971097003
 20
132.2642108601
 10
158.1550987944
 20
133.8183367296
 10
156.6680295968
 20
135.1583880388
 10
155.1426626369
 20
136.2782726326
 10
153.5859325538
 20
137.1728992799
 10
152.0049165702
 20
137.8382008198
 10
150.4068023172
 20
138.2711526515
 10
148.7988551586
 20
138.4697864848
 10
147.1883851605
 20
138.4331992886
 10
145.5827138582
 20
138.161557396
 10
143.9891409715
 20
137.6560957482
 10
142.4149112179
 20
136.9191122801
 10
140.8671813771
 20
135.9539574736
 10
139.3529877546
 20
134.7650191257
 10
137.8792141933
 20
133.3577024002
 10
136.4525607779
 20
131.738405255
 10
135.0795133749
 20
129.9144893557
 10
133.7663141468
 20
127.8942466077
 10
132.5189331734
 20
125.6868614596
 10
131.3430413113
 20
123.3023691487
 10
130.2439844123
 20
120.7516100789
 10
129.2267590201
 20
118.0461805375
 10
128.2959896556
 20
115.1983799765
 10
127.455907792
 20
112.2211550964
 10
126.7103326183
 20
109.1280409879
 10
126.0626536761
 20
105.9330995987
 10
125.5158154502
 20
102.6508558045
 10
125.0723039821
 20
99.2962313761
 10
124.7341355684
 20
95.8844771422
 10
124.5028475937
 20
92.4311036552
 10
124.379491542
 20
88.9518106777
 10
124.3646282157
 20
85.4624158076
 10
124.4583251867
 20
81.9787825682
 10
124.6601564887
 20
78.5167482892
 10
124.9692045544
 20
75.0920521068
 10
125.3840643861
 20
71.7202634105
 10
125.9028499437
 20
68.4167110612
 10
126.5232027189
 20
65.1964137028
 10
127.2423024575
 20
62.0740114848
 10
128.0568799808
 20
59.0636995046
 10
128.963232048
 20
56.1791632739
 10
129.9572381919
 20
53.4335165013
 10
131.0343794513
 20
50.8392414748
 10
132.1897589155
 20
48.4081323144
 10
133.4181239863
 20
46.1512413539
 10
134.7138902578
 20
44.0788288946
 10
136.0711669037
 20
42.2003165594
 10
137.4837834588
 20
40.5242444608
 10
138.9453178711
 20
39.0582323751
 10
140.4491256976
 20
37.8089451017
 10
141.9883703116
 20
36.7820621635
 10
143.5560539831
 20
35.9822519864
 10
145.1450496922
 20
35.4131506756
 10
146.7481335303
 20
35.0773454855
 10
148.3580175409
 20
34.9763630572
 10
149.9673828524
 20
35.1106624779
 10
151.5689129517
 20
35.4796331944
 10
153.1553269458
 20
36.081597788
 10
154.719412663
 20
36.9138196012
 10
156.2540594405
 20
37.9725151783
 10
157.7522904511
 20
39.2528714666
 10
159.2072944215
 20
40.7490676969
 10
160.6124565975
 20
42.4543018465
 10
161.9613888161
 20
44.360821562
 10
163.2479585476
 20
46.4599594037
 10
164.4663167754
 20
48.7421722494
 10
165.6109245866
 20
51.1970846791
 10
166.6765783533
 20
53.8135361445
 10
167.6584333891
 20
56.5796317066
 10
168.5520259746
 20
59.4827961131
 10
169.3532936498
 20
62.5098309678
 10
170.0585936833
 20
65.6469747332
 10
170.6647196327
 20
68.8799652937
  0
LWPOLYLINE
  5
98
330
1F
100
AcDbEntity
  8
0
  6
Continuous
 62
     7
370
    15
100
AcDbPolyline
 90
       47
 70
   128
 43
0.0
 10
170.1423486546
 20
69.3554022363
 10
168.8653955924
 20
67.8280757817
 10
167.4958956465
 20
66.4954816882
 10
166.0468616215
 20
65.3702820858
 10
164.5320620441
 20
64.4631684699
 10
162.9658903362
 20
63.7827601124
 10
161.3632280511
 20
63.335522162
 10
159.7393034705
 20
63.1257042137
 10
158.1095469076
 20
63.1552999293
 10
156.4894440903
 20
63.4240280944
 10
154.894389018
 20
63.9293352901
 10
153.3395376896
 20
64.6664201552
 10
151.8396640936
 20
65.6282790085
 10
150.4090198275
 20
66.8057723962
 10
149.0611986808
 20
68.1877119345
 10
147.8090074691
 20
69.7609666194
 10
146.6643443449
 20
71.5105875963
 10
145.6380857436
 20
73.4199502017
 10
144.7399830365
 20
75.4709119287
 10
143.9785698748
 20
77.6439848144
 10
143.3610811041
 20
79.9185206122
 10
142.8933840199
 20
82.2729069885
 10
142.5799226169
 20
84.6847728804
 10
142.4236753632
 20
87.1312010619
 10
142.4261268994
 20
89.5889459014
 10
142.5872539312
 20
92.0346542373
 10
142.9055254512
 20
94.4450872778
 10
143.3779172862
 20
96.7973414118
 10
143.9999408325
 20
99.0690658366
 10
144.7656857058
 20
101.2386749319
 10
145.6678759013
 20
103.2855533636
 10
146.6979389289
 20
105.1902519676
 10
147.8460872681
 20
106.9346725539
 10
149.1014113676
 20
108.5022398723
 10
150.4519833065
 20
109.8780591087
 10
151.8849701316
 20
111.0490574136
 10
153.3867557947
 20
112.0041081185
 10
154.9430705301
 20
112.7341364597
 10
156.5391264443
 20
113.2322058061
 10
158.1597580284
 20
113.4935835697
 10
159.7895662587
 20
113.5157861741
 10
161.4130649165
 20
113.2986026531
 10
163.0148277357
 20
112.8440966553
 10
164.5796349809
 20
112.1565868357
 10
166.0926180642
 20
111.2426058203
 10
167.5394008233
 20
110.1108381338
 10
168.906236123
 20
108.7720376807
  0
LINE
  5
9D
330
1F
100
AcDbEntity
  8
0
  6
Continuous
 62
     7
370
    15
100
AcDbLine
 10
159.6489573574
 20
161.4583338043
 30
0.0
 11
166.4527546687
 21
168.5051238768
 31
0.0
  0
LINE
  5
9E
330
1F
100
AcDbEntity
  8
0
  6
Continuous
 62
     7
370
    15
100
AcDbLine
 10
115.5876298947
 20
69.519819945
 30
0.0
 11
112.8319130027
 21
70.6815131066
 31
0.0
  0
LINE
  5
9F
330
1F
100
AcDbEntity
  8
0
  6
Continuous
 62
     7
370
    15
100
AcDbLine
 10
112.1708400491
 20
97.6914162332
 30
0.0
 11
114.6548530953
 21
98.5640448698
 31
0.0
  0
LINE
  5
A0
330
1F
100
AcDbEntity
  8
0
  6
Continuous
 62
     7
370
    15
100
AcDbLine
 10
201.54
 20
141.82
 30
0.0
 11
201.54
 21
126.82
 31
0.0
  0
LINE
  5
A1
330
1F
100
AcDbEntity
  8
0
  6
Continuous
 62
     7
370
    15
100
AcDbLine
 10
201.54
 20
126.82
 30
0.0
 11
208.4
 21
126.82
 31
0.0
  0
LINE
  5
A2
330
1F
100
AcDbEntity
  8
0
  6
Continuous
 62
     7
370
    15
100
AcDbLine
 10
208.4
 20
141.82
 30
0.0
 11
208.4
 21
126.82
 31
0.0
  0
LINE
  5
A3
330
1F
100
AcDbEntity
  8
0
  6
Continuous
 62
     7
370
    15
100
AcDbLine
 10
201.54
 20
141.82
 30
0.0
 11
208.4
 21
141.82
 31
0.0
  0
LINE
  5
A4
330
1F
100
AcDbEntity
  8
0
  6
Continuous
 62
     7
370
    15
100
AcDbLine
 10
0.0
 20
266.0
 30
0.0
 11
0.0
 21
2.0
 31
0.0
  0
LINE
  5
A5
330
1F
100
AcDbEntity
  8
0
  6
Continuous
 62
     7
370
    15
100
AcDbLine
 10
213.28
 20
268.0
 30
0.0
 11
2.0
 21
268.0
 31
0.0
  0
LINE
  5
A6
330
1F
100
AcDbEntity
  8
0
  6
Continuous
 62
     7
370
    15
100
AcDbLine
 10
215.28
 20
2.0
 30
0.0
 11
215.28
 21
266.0
 31
0.0
  0
LINE
  5
A7
330
1F
100
AcDbEntity
  8
0
  6
Continuous
 62
     7
370
    15
100
AcDbLine
 10
2.0
 20
0.0
 30
0.0
 11
213.28
 21
0.0
 31
0.0
  0
LINE
  5
A8
330
1F
100
AcDbEntity
  8
0
  6
Continuous
 62
     7
370
    15
100
AcDbLine
 10
39.14
 20
258.87
 30
0.0
 11
39.14
 21
265.73
 31
0.0
  0
LINE
  5
A9
330
1F
100
AcDbEntity
  8
0
  6
Continuous
 62
     7
370
    15
100
AcDbLine
 10
39.14
 20
258.87
 30
0.0
 11
54.14
 21
258.87
 31
0.0
  0
LINE
  5
AA
330
1F
100
AcDbEntity
  8
0
  6
Continuous
 62
     7
370
    15
100
AcDbLine
 10
54.14
 20
258.87
 30
0.0
 11
54.14
 21
265.73
 31
0.0
  0
LINE
  5
AB
330
1F
100
AcDbEntity
  8
0
  6
Continuous
 62
     7
370
    15
100
AcDbLine
 10
39.14
 20
265.73
 30
0.0
 11
54.14
 21
265.73
 31
0.0
  0
LINE
  5
AC
330
1F
100
AcDbEntity
  8
0
  6
Continuous
 62
     7
370
    15
100
AcDbLine
 10
13.74
 20
141.82
 30
0.0
 11
6.88
 21
141.82
 31
0.0
  0
LINE
  5
AD
330
1F
100
AcDbEntity
  8
0
  6
Continuous
 62
     7
370
    15
100
AcDbLine
 10
6.88
 20
141.82
 30
0.0
 11
6.88
 21
126.82
 31
0.0
  0
LINE
  5
AE
330
1F
100
AcDbEntity
  8
0
  6
Continuous
 62
     7
370
    15
100
AcDbLine
 10
13.74
 20
126.82
 30
0.0
 11
6.88
 21
126.82
 31
0.0
  0
LINE
  5
AF
330
1F
100
AcDbEntity
  8
0
  6
Continuous
 62
     7
370
    15
100
AcDbLine
 10
13.74
 20
141.82
 30
0.0
 11
13.74
 21
126.82
 31
0.0
  0
LINE
  5
B0
330
1F
100
AcDbEntity
  8
0
  6
Continuous
 62
     7
370
    15
100
AcDbLine
 10
176.14
 20
258.87
 30
0.0
 11
176.14
 21
265.73
 31
0.0
  0
LINE
  5
B1
330
1F
100
AcDbEntity
  8
0
  6
Continuous
 62
     7
370
    15
100
AcDbLine
 10
176.14
 20
265.73
 30
0.0
 11
161.14
 21
265.73
 31
0.0
  0
LINE
  5
B2
330
1F
100
AcDbEntity
  8
0
  6
Continuous
 62
     7
370
    15
100
AcDbLine
 10
161.14
 20
258.87
 30
0.0
 11
161.14
 21
265.73
 31
0.0
  0
LINE
  5
B3
330
1F
100
AcDbEntity
  8
0
  6
Continuous
 62
     7
370
    15
100
AcDbLine
 10
176.14
 20
258.87
 30
0.0
 11
161.14
 21
258.87
 31
0.0
  0
LINE
  5
B4
330
1F
100
AcDbEntity
  8
0
  6
Continuous
 62
     7
370
    15
100
AcDbLine
 10
90.1530276769
 20
156.841471343
 30
0.0
 11
97.1998177494
 21
163.6452686544
 31
0.0
  0
LINE
  5
B5
330
1F
100
AcDbEntity
  8
0
  6
Continuous
 62
     7
370
    15
100
AcDbLine
 10
168.906236123
 20
108.7720376807
 30
0.0
 11
169.5560134322
 21
110.101423498
 31
0.0
  0
LINE
  5
B6
330
1F
100
AcDbEntity
  8
0
  6
Continuous
 62
     7
370
    15
100
AcDbLine
 10
170.6647196327
 20
68.8799652937
 30
0.0
 11
170.1423486546
 21
69.3554022363
 31
0.0
  0
LINE
  5
B7
330
1F
100
AcDbEntity
  8
0
  6
Continuous
 62
     7
370
    15
100
AcDbLine
 10
45.14
 20
192.6
 30
0.0
 11
170.14
 21
192.6
 31
0.0
  0
LINE
  5
B8
330
1F
100
AcDbEntity
  8
0
  6
Continuous
 62
     7
370
    15
100
AcDbLine
 10
170.14
 20
243.4
 30
0.0
 11
45.14
 21
243.4
 31
0.0
  0
ARC
  5
B9
330
1F
100
AcDbEntity
  8
0
  6
Continuous
 62
     7
370
    15
100
AcDbCircle
 10
2.0
 20
2.0
 30
0.0
 40
2.000000000000004
100
AcDbArc
 50
180.0
 51
270.0
  0
ARC
  5
BA
330
1F
100
AcDbEntity
  8
0
  6
Continuous
 62
     7
370
    15
100
AcDbCircle
 10
2.0
 20
266.0
 30
0.0
 40
2.0
100
AcDbArc
 50
90.0
 51
180.0
  0
ARC
  5
BB
330
1F
100
AcDbEntity
  8
0
  6
Continuous
 62
     7
370
    15
100
AcDbCircle
 10
213.28
 20
266.0
 30
0.0
 40
2.000000000000028
100
AcDbArc
 50
0.0
 51
90.0
  0
ARC
  5
BC
330
1F
100
AcDbEntity
  8
0
  6
Continuous
 62
     7
370
    15
100
AcDbCircle
 10
213.28
 20
2.0
 30
0.0
 40
2.000000000000029
100
AcDbArc
 50
270.0
 51
0.0
  0
ARC
  5
BD
330
1F
100
AcDbEntity
  8
0
  6
Continuous
 62
     7
370
    15
100
AcDbCircle
 10
45.14
 20
218.0
 30
0.0
 40
25.40000000000003
100
AcDbArc
 50
90.0
 51
270.0
  0
ARC
  5
BE
330
1F
100
AcDbEntity
  8
0
  6
Continuous
 62
     7
370
    15
100
AcDbCircle
 10
170.14
 20
218.0
 30
0.0
 40
25.40000000000003
100
AcDbArc
 50
270.0
 51
90.0
  0
ENDSEC
  0
SECTION
  2
OBJECTS
  0
DICTIONARY
  5
C
330
0
100
AcDbDictionary
281
     1
  3
ACAD_DETAILVIEWSTYLE
350
C3
  3
ACAD_GROUP
350
D
  3
ACAD_LAYOUT
350
1A
  3
ACAD_MATERIAL
350
43
  3
ACAD_MLEADERSTYLE
350
C2
  3
ACAD_MLINESTYLE
350
17
  3
ACAD_PLOTSETTINGS
350
19
  3
ACAD_PLOTSTYLENAME
350
E
  3
ACAD_SCALELIST
350
47
  3
ACAD_SECTIONVIEWSTYLE
350
C4
  3
ACAD_TABLESTYLE
350
C1
  3
AcDbVariableDictionary
350
BF
  0
DICTIONARY
  5
C3
102
{ACAD_REACTORS
330
C
102
}
330
C
100
AcDbDictionary
281
     1
  0
DICTIONARY
  5
D
102
{ACAD_REACTORS
330
C
102
}
330
C
100
AcDbDictionary
281
     1
  0
DICTIONARY
  5
1A
102
{ACAD_REACTORS
330
C
102
}
330
C
100
AcDbDictionary
281
     1
  3
Layout1
350
1E
  3
Layout2
350
26
  3
Model
350
22
  0
DICTIONARY
  5
43
102
{ACAD_REACTORS
330
C
102
}
330
C
100
AcDbDictionary
281
     1
  3
ByBlock
350
45
  3
ByLayer
350
44
  3
Global
350
46
  0
DICTIONARY
  5
C2
102
{ACAD_REACTORS
330
C
102
}
330
C
100
AcDbDictionary
281
     1
  0
DICTIONARY
  5
17
102
{ACAD_REACTORS
330
C
102
}
330
C
100
AcDbDictionary
281
     1
  3
Standard
350
18
  0
DICTIONARY
  5
19
102
{ACAD_REACTORS
330
C
102
}
330
C
100
AcDbDictionary
281
     1
  0
ACDBDICTIONARYWDFLT
  5
E
102
{ACAD_REACTORS
330
C
102
}
330
C
100
AcDbDictionary
281
     1
  3
Normal
350
F
100
AcDbDictionaryWithDefault
340
F
  0
DICTIONARY
  5
47
102
{ACAD_REACTORS
330
C
102
}
330
C
100
AcDbDictionary
281
     1
  3
A0
350
48
  3
A1
350
49
  3
A2
350
4A
  3
A3
350
4B
  3
A4
350
4C
  3
A5
350
4D
  3
A6
350
4E
  3
A7
350
4F
  3
A8
350
50
  3
A9
350
51
  3
B0
350
52
  3
B1
350
53
  3
B2
350
54
  3
B3
350
55
  3
B4
350
56
  3
B5
350
57
  3
B6
350
58
  3
B7
350
59
  3
B8
350
5A
  3
B9
350
5B
  3
C0
350
5C
  3
C1
350
5D
  3
C2
350
5E
  3
C3
350
5F
  3
C4
350
60
  3
C5
350
61
  3
C6
350
62
  3
C7
350
63
  3
C8
350
64
  3
C9
350
65
  3
D0
350
66
  3
D1
350
67
  3
D2
350
68
  0
DICTIONARY
  5
C4
102
{ACAD_REACTORS
330
C
102
}
330
C
100
AcDbDictionary
281
     1
  0
DICTIONARY
  5
C1
102
{ACAD_REACTORS
330
C
102
}
330
C
100
AcDbDictionary
281
     1
  0
DICTIONARY
  5
BF
102
{ACAD_REACTORS
330
C
102
}
330
C
100
AcDbDictionary
281
     1
  3
CANNOSCALE
350
C0
  0
LAYOUT
  5
1E
102
{ACAD_REACTORS
330
1A
102
}
330
1A
100
AcDbPlotSettings
  1

  2
none_device
  4

  6

 40
0.0
 41
0.0
 42
0.0
 43
0.0
 44
0.0
 45
0.0
 46
0.0
 47
0.0
 48
0.0
 49
0.0
140
0.0
141
0.0
142
1.0
143
1.0
 70
   688
 72
     1
 73
     0
 74
     5
  7

 75
    16
 76
     0
 77
     2
 78
   300
147
1.0
148
0.0
149
0.0
100
AcDbLayout
  1
Layout1
 70
     1
 71
     1
 10
0.0
 20
0.0
 11
420.0
 21
297.0
 12
0.0
 22
0.0
 32
0.0
 14
1.0000000000E+20
 24
1.0000000000E+20
 34
1.0000000000E+20
 15
-1.0000000000E+20
 25
-1.0000000000E+20
 35
-1.0000000000E+20
146
0.0
 13
0.0
 23
0.0
 33
0.0
 16
1.0
 26
0.0
 36
0.0
 17
0.0
 27
1.0
 37
0.0
 76
     0
330
1B
  0
LAYOUT
  5
26
102
{ACAD_REACTORS
330
1A
102
}
330
1A
100
AcDbPlotSettings
  1

  2
none_device
  4

  6

 40
0.0
 41
0.0
 42
0.0
 43
0.0
 44
0.0
 45
0.0
 46
0.0
 47
0.0
 48
0.0
 49
0.0
140
0.0
141
0.0
142
1.0
143
1.0
 70
   688
 72
     1
 73
     0
 74
     5
  7

 75
    16
 76
     0
 77
     2
 78
   300
147
1.0
148
0.0
149
0.0
100
AcDbLayout
  1
Layout2
 70
     1
 71
     2
 10
0.0
 20
0.0
 11
0.0
 21
0.0
 12
0.0
 22
0.0
 32
0.0
 14
0.0
 24
0.0
 34
0.0
 15
0.0
 25
0.0
 35
0.0
146
0.0
 13
0.0
 23
0.0
 33
0.0
 16
1.0
 26
0.0
 36
0.0
 17
0.0
 27
1.0
 37
0.0
 76
     0
330
23
  0
LAYOUT
  5
22
102
{ACAD_REACTORS
330
1A
102
}
330
1A
100
AcDbPlotSettings
  1

  2
none_device
  4
ANSI_A_(11.00_x_8.50_Inches)
  6

 40
6.35
 41
19.05
 42
6.35000508
 43
19.05000254
 44
279.4
 45
215.9
 46
47.5026794003
 47
-17.97050127
 48
0.0
 49
0.0
140
0.0
141
0.0
142
0.0313992537
143
1.0
 70
  1696
 72
     0
 73
     0
 74
     0
  7

 75
     0
 76
     0
 77
     2
 78
   300
147
0.0179189148
148
-1300.4909072572
149
0.0
100
AcDbLayout
  1
Model
 70
     1
 71
     0
 10
0.0
 20
0.0
 11
420.0
 21
297.0
 12
0.0
 22
0.0
 32
0.0
 14
0.0
 24
0.0
 34
0.0
 15
215.28
 25
268.0
 35
0.0
146
0.0
 13
0.0
 23
0.0
 33
0.0
 16
1.0
 26
0.0
 36
0.0
 17
0.0
 27
1.0
 37
0.0
 76
     0
330
1F
331
29
  0
MATERIAL
  5
45
102
{ACAD_REACTORS
330
43
102
}
330
43
100
AcDbMaterial
  1
ByBlock
  0
MATERIAL
  5
44
102
{ACAD_REACTORS
330
43
102
}
330
43
100
AcDbMaterial
  1
ByLayer
  0
MATERIAL
  5
46
102
{ACAD_REACTORS
330
43
102
}
330
43
100
AcDbMaterial
  1
Global
  0
MLINESTYLE
  5
18
102
{ACAD_REACTORS
330
17
102
}
330
17
100
AcDbMlineStyle
  2
Standard
 70
     0
  3

 62
   256
 51
90.0
 52
90.0
 71
     2
 49
0.5
 62
   256
  6
BYLAYER
 49
-0.5
 62
   256
  6
BYLAYER
  0
ACDBPLACEHOLDER
  5
F
102
{ACAD_REACTORS
330
E
102
}
330
E
  0
SCALE
  5
48
102
{ACAD_REACTORS
330
47
102
}
330
47
100
AcDbScale
 70
     0
300
1:1
140
1.0
141
1.0
290
     1
  0
SCALE
  5
49
102
{ACAD_REACTORS
330
47
102
}
330
47
100
AcDbScale
 70
     0
300
1:2
140
1.0
141
2.0
290
     0
  0
SCALE
  5
4A
102
{ACAD_REACTORS
330
47
102
}
330
47
100
AcDbScale
 70
     0
300
1:4
140
1.0
141
4.0
290
     0
  0
SCALE
  5
4B
102
{ACAD_REACTORS
330
47
102
}
330
47
100
AcDbScale
 70
     0
300
1:5
140
1.0
141
5.0
290
     0
  0
SCALE
  5
4C
102
{ACAD_REACTORS
330
47
102
}
330
47
100
AcDbScale
 70
     0
300
1:8
140
1.0
141
8.0
290
     0
  0
SCALE
  5
4D
102
{ACAD_REACTORS
330
47
102
}
330
47
100
AcDbScale
 70
     0
300
1:10
140
1.0
141
10.0
290
     0
  0
SCALE
  5
4E
102
{ACAD_REACTORS
330
47
102
}
330
47
100
AcDbScale
 70
     0
300
1:16
140
1.0
141
16.0
290
     0
  0
SCALE
  5
4F
102
{ACAD_REACTORS
330
47
102
}
330
47
100
AcDbScale
 70
     0
300
1:20
140
1.0
141
20.0
290
     0
  0
SCALE
  5
50
102
{ACAD_REACTORS
330
47
102
}
330
47
100
AcDbScale
 70
     0
300
1:30
140
1.0
141
30.0
290
     0
  0
SCALE
  5
51
102
{ACAD_REACTORS
330
47
102
}
330
47
100
AcDbScale
 70
     0
300
1:40
140
1.0
141
40.0
290
     0
  0
SCALE
  5
52
102
{ACAD_REACTORS
330
47
102
}
330
47
100
AcDbScale
 70
     0
300
1:50
140
1.0
141
50.0
290
     0
  0
SCALE
  5
53
102
{ACAD_REACTORS
330
47
102
}
330
47
100
AcDbScale
 70
     0
300
1:100
140
1.0
141
100.0
290
     0
  0
SCALE
  5
54
102
{ACAD_REACTORS
330
47
102
}
330
47
100
AcDbScale
 70
     0
300
2:1
140
2.0
141
1.0
290
     0
  0
SCALE
  5
55
102
{ACAD_REACTORS
330
47
102
}
330
47
100
AcDbScale
 70
     0
300
4:1
140
4.0
141
1.0
290
     0
  0
SCALE
  5
56
102
{ACAD_REACTORS
330
47
102
}
330
47
100
AcDbScale
 70
     0
300
8:1
140
8.0
141
1.0
290
     0
  0
SCALE
  5
57
102
{ACAD_REACTORS
330
47
102
}
330
47
100
AcDbScale
 70
     0
300
10:1
140
10.0
141
1.0
290
     0
  0
SCALE
  5
58
102
{ACAD_REACTORS
330
47
102
}
330
47
100
AcDbScale
 70
     0
300
100:1
140
100.0
141
1.0
290
     0
  0
SCALE
  5
59
102
{ACAD_REACTORS
330
47
102
}
330
47
100
AcDbScale
 70
     0
300
1/128" = 1'-0"
140
0.0078125
141
12.0
290
     0
  0
SCALE
  5
5A
102
{ACAD_REACTORS
330
47
102
}
330
47
100
AcDbScale
 70
     0
300
1/64" = 1'-0"
140
0.015625
141
12.0
290
     0
  0
SCALE
  5
5B
102
{ACAD_REACTORS
330
47
102
}
330
47
100
AcDbScale
 70
     0
300
1/32" = 1'-0"
140
0.03125
141
12.0
290
     0
  0
SCALE
  5
5C
102
{ACAD_REACTORS
330
47
102
}
330
47
100
AcDbScale
 70
     0
300
1/16" = 1'-0"
140
0.0625
141
12.0
290
     0
  0
SCALE
  5
5D
102
{ACAD_REACTORS
330
47
102
}
330
47
100
AcDbScale
 70
     0
300
3/32" = 1'-0"
140
0.09375
141
12.0
290
     0
  0
SCALE
  5
5E
102
{ACAD_REACTORS
330
47
102
}
330
47
100
AcDbScale
 70
     0
300
1/8" = 1'-0"
140
0.125
141
12.0
290
     0
  0
SCALE
  5
5F
102
{ACAD_REACTORS
330
47
102
}
330
47
100
AcDbScale
 70
     0
300
3/16" = 1'-0"
140
0.1875
141
12.0
290
     0
  0
SCALE
  5
60
102
{ACAD_REACTORS
330
47
102
}
330
47
100
AcDbScale
 70
     0
300
1/4" = 1'-0"
140
0.25
141
12.0
290
     0
  0
SCALE
  5
61
102
{ACAD_REACTORS
330
47
102
}
330
47
100
AcDbScale
 70
     0
300
3/8" = 1'-0"
140
0.375
141
12.0
290
     0
  0
SCALE
  5
62
102
{ACAD_REACTORS
330
47
102
}
330
47
100
AcDbScale
 70
     0
300
1/2" = 1'-0"
140
0.5
141
12.0
290
     0
  0
SCALE
  5
63
102
{ACAD_REACTORS
330
47
102
}
330
47
100
AcDbScale
 70
     0
300
3/4" = 1'-0"
140
0.75
141
12.0
290
     0
  0
SCALE
  5
64
102
{ACAD_REACTORS
330
47
102
}
330
47
100
AcDbScale
 70
     0
300
1" = 1'-0"
140
1.0
141
12.0
290
     0
  0
SCALE
  5
65
102
{ACAD_REACTORS
330
47
102
}
330
47
100
AcDbScale
 70
     0
300
1-1/2" = 1'-0"
140
1.5
141
12.0
290
     0
  0
SCALE
  5
66
102
{ACAD_REACTORS
330
47
102
}
330
47
100
AcDbScale
 70
     0
300
3" = 1'-0"
140
3.0
141
12.0
290
     0
  0
SCALE
  5
67
102
{ACAD_REACTORS
330
47
102
}
330
47
100
AcDbScale
 70
     0
300
6" = 1'-0"
140
6.0
141
12.0
290
     0
  0
SCALE
  5
68
102
{ACAD_REACTORS
330
47
102
}
330
47
100
AcDbScale
 70
     0
300
1'-0" = 1'-0"
140
12.0
141
12.0
290
     0
  0
DICTIONARYVAR
  5
C0
102
{ACAD_REACTORS
330
BF
102
}
330
BF
100
DictionaryVariables
280
     0
  1
1:1
  0
ENDSEC
  0
EOF
